<?xml version="1.0" standalone="no"?>
<!DOCTYPE svg PUBLIC "-//W3C//DTD SVG 20010904//EN"
 "http://www.w3.org/TR/2001/REC-SVG-20010904/DTD/svg10.dtd">
<svg version="1.0" xmlns="http://www.w3.org/2000/svg"
 width="640.000000pt" height="640.000000pt" viewBox="0 0 640.000000 640.000000"
 preserveAspectRatio="xMidYMid meet">
<metadata>
Created by potrace 1.14, written by Peter Selinger 2001-2017
</metadata>
<g transform="translate(0.000000,640.000000) scale(0.100000,-0.100000)"
fill="#000000" stroke="none">
<path d="M1331 6348 c-16 -75 -31 -161 -52 -303 -5 -38 -14 -90 -19 -115 -14
-68 -49 -279 -55 -333 -7 -52 -16 -59 -100 -77 -41 -9 -255 -64 -310 -79 -61
-18 -312 -84 -365 -96 -30 -7 -90 -23 -134 -35 -48 -13 -90 -19 -108 -15 -18
4 -37 1 -51 -8 -13 -8 -48 -23 -80 -33 -43 -13 -57 -22 -57 -37 0 -13 5 -17
18 -13 9 2 60 14 112 26 52 12 133 33 180 47 47 14 103 29 125 34 22 5 58 14
80 19 22 6 59 15 83 20 24 6 47 12 52 15 4 3 86 25 182 49 171 44 232 60 503
131 174 46 263 69 385 100 52 13 120 31 150 40 30 9 89 24 130 34 93 23 341
89 535 143 39 11 86 23 105 28 19 4 80 20 135 35 187 50 370 97 425 109 30 7
80 20 110 29 68 20 201 54 300 77 41 10 102 25 135 34 90 23 103 21 119 -18
24 -58 37 -165 25 -212 -10 -38 -14 -42 -47 -47 -44 -5 -66 8 -53 31 5 10 5
26 -1 41 -5 15 -12 44 -14 65 -2 22 -6 42 -9 45 -3 2 -40 -6 -83 -18 -42 -13
-102 -29 -132 -36 -111 -25 -426 -106 -470 -120 -41 -13 -88 -25 -270 -70 -36
-9 -96 -25 -135 -35 -38 -11 -133 -36 -210 -55 -77 -19 -228 -57 -335 -85
-107 -28 -240 -62 -295 -75 -55 -13 -134 -33 -175 -44 -41 -12 -101 -26 -135
-32 -33 -6 -64 -14 -70 -18 -5 -4 -37 -13 -70 -20 -33 -7 -69 -17 -80 -21 -11
-5 -33 -11 -50 -13 -37 -6 -267 -63 -470 -117 -82 -22 -226 -58 -320 -80 -93
-23 -181 -45 -195 -49 -14 -5 -70 -19 -125 -32 -55 -13 -104 -26 -108 -30 -4
-3 -5 -18 -1 -33 5 -21 10 -25 28 -20 11 3 30 14 41 24 11 10 94 36 185 59 91
23 203 53 250 66 47 12 128 33 180 45 222 52 910 222 970 239 36 11 160 43
275 71 116 28 271 68 345 89 150 42 245 66 335 86 33 7 96 23 140 35 109 30
168 46 320 85 72 18 157 41 190 50 283 79 408 107 442 99 25 -7 26 -9 13 -39
-5 -11 -9 -14 -9 -6 -1 9 -11 3 -29 -15 -28 -30 -67 -42 -247 -79 -44 -9 -188
-43 -320 -76 -132 -33 -276 -68 -320 -79 -44 -10 -93 -24 -110 -30 -16 -6 -57
-18 -90 -25 -262 -61 -511 -130 -520 -145 -4 -6 -23 -10 -44 -10 -21 0 -61 -6
-87 -14 -27 -8 -89 -23 -139 -35 -242 -55 -527 -125 -590 -143 -84 -25 -136
-38 -335 -87 -19 -5 -48 -14 -65 -19 -16 -6 -70 -20 -120 -32 -49 -12 -106
-26 -125 -31 -91 -26 -216 -54 -300 -69 -30 -5 -85 -18 -122 -29 -57 -16 -69
-17 -79 -5 -30 36 -49 8 -39 -61 9 -64 2 -85 -31 -97 -21 -7 -29 -16 -29 -34
0 -28 13 -30 53 -9 15 8 34 12 42 8 12 -4 15 4 15 40 0 49 2 51 70 62 19 3 44
9 55 14 77 35 900 249 912 238 5 -6 -23 -215 -58 -427 -17 -101 -25 -130 -45
-151 -20 -21 -24 -35 -24 -92 l0 -67 -407 -1 c-225 -1 -425 -3 -446 -4 -43 -2
-58 15 -39 46 16 26 16 27 -18 34 -22 5 -32 14 -36 33 -3 15 -8 34 -11 42 -9
26 -25 -30 -25 -88 0 -41 -4 -55 -19 -65 -18 -11 -19 -25 -19 -199 l0 -187 30
5 c37 8 103 -4 95 -17 -4 -5 -33 -9 -66 -9 -51 0 -59 -2 -59 -19 0 -15 10 -21
40 -26 21 -4 44 -4 49 -1 12 8 41 -3 41 -15 0 -5 -29 -9 -65 -9 -63 0 -65 -1
-65 -25 0 -24 3 -25 54 -25 32 0 58 -5 64 -13 14 -17 18 -397 5 -422 -12 -21
-5 -403 8 -427 13 -24 -6 -32 -73 -30 l-58 3 0 -52 0 -52 70 7 70 7 0 -71 0
-71 -70 7 -70 7 0 -34 0 -34 108 0 c59 -1 117 -4 130 -7 14 -4 37 0 57 9 44
21 56 10 24 -20 -26 -23 -26 -23 -261 -29 l-58 -2 0 -431 0 -432 42 -18 c78
-33 122 -45 208 -56 47 -5 119 -15 160 -20 41 -6 107 -15 145 -20 39 -5 164
-13 279 -18 123 -6 213 -14 219 -20 6 -6 17 -11 24 -11 8 0 57 -28 111 -63
138 -90 167 -107 184 -107 25 0 76 -30 98 -57 16 -20 20 -41 20 -98 0 -49 -4
-76 -14 -84 -7 -6 -16 -42 -19 -84 -8 -85 -16 -117 -29 -117 -5 0 -23 -13 -40
-30 -32 -33 -36 -34 -57 -21 -12 8 -12 12 2 26 22 21 22 41 0 54 -14 7 -15 12
-5 24 19 23 32 76 21 83 -6 3 -13 -3 -16 -14 -2 -11 -13 -22 -24 -25 -11 -3
-18 -12 -17 -24 2 -10 -1 -20 -7 -23 -6 -3 -10 19 -11 55 -2 85 -19 139 -54
169 -44 36 -318 117 -445 131 -27 3 -140 12 -250 20 -151 12 -204 20 -217 32
-9 8 -25 13 -34 9 -9 -3 -53 3 -97 13 -45 11 -103 23 -130 26 l-47 7 0 -94 c0
-69 3 -95 13 -95 52 -2 114 -17 124 -30 10 -12 5 -22 -25 -53 -51 -51 -112
-141 -112 -164 0 -26 22 -7 55 50 14 24 30 44 36 44 5 0 13 8 16 18 4 9 15 26
25 36 10 11 18 26 18 33 0 38 101 36 255 -4 84 -23 119 -27 219 -25 l119 1
138 -54 c76 -30 143 -55 149 -55 7 0 24 -9 38 -21 26 -20 28 -29 44 -177 9
-87 20 -178 24 -204 6 -47 6 -48 -19 -48 -14 0 -28 4 -31 8 -9 15 6 52 20 52
8 0 14 5 14 10 0 6 -4 10 -8 10 -4 0 -14 17 -22 37 -11 33 -14 35 -20 18 -4
-11 -5 -41 -2 -68 4 -42 3 -47 -13 -41 -14 6 -16 15 -12 53 6 53 -20 142 -68
231 -17 32 -46 50 -52 33 -3 -7 -14 -13 -26 -13 -18 0 -19 2 -7 10 8 5 11 10
5 11 -34 3 -71 11 -86 19 -9 5 -84 14 -165 20 -82 5 -162 13 -179 18 -39 10
-209 -2 -305 -22 -41 -9 -94 -16 -117 -16 -37 0 -43 -3 -43 -21 0 -20 4 -21
43 -15 23 3 87 12 142 21 165 24 415 18 567 -14 68 -15 197 -70 207 -90 27
-50 41 -117 35 -158 -6 -42 -8 -44 -33 -38 -14 3 -39 8 -56 11 -21 4 -49 26
-91 71 l-62 66 -79 5 c-44 2 -104 -1 -134 -7 -29 -7 -132 -14 -229 -17 -181
-5 -310 -20 -310 -37 0 -5 15 -7 33 -3 26 4 194 9 245 7 16 -1 15 -16 -2 -54
-14 -32 -34 -103 -40 -142 -2 -11 -6 -30 -10 -42 -4 -13 -3 -23 2 -23 5 0 12
8 16 18 3 9 10 24 15 32 5 8 17 38 25 66 8 28 24 72 35 97 19 45 20 45 78 51
32 4 97 11 144 16 150 17 176 15 210 -22 32 -35 34 -50 19 -148 -6 -36 -10
-168 -10 -295 0 -190 2 -232 15 -244 20 -20 35 -4 40 40 2 19 10 57 18 84 22
74 29 125 18 125 -6 0 -15 -19 -21 -42 -22 -92 -33 -119 -42 -106 -15 25 11
407 32 463 7 18 15 25 28 21 9 -2 44 -10 77 -17 66 -14 128 -48 145 -78 16
-30 12 -75 -11 -127 -31 -74 -42 -135 -29 -169 9 -23 13 -26 20 -15 6 8 10 25
10 38 0 27 16 29 23 3 3 -12 20 -24 46 -32 22 -7 41 -17 42 -23 3 -34 -3 -326
-8 -353 -4 -25 -2 -33 10 -33 17 0 27 59 27 170 0 120 9 170 31 170 10 0 26
-11 35 -25 18 -27 23 -50 52 -209 11 -59 24 -102 31 -104 19 -6 32 20 19 36
-6 7 -13 36 -15 65 -2 29 -8 65 -13 81 -6 16 -10 43 -10 61 l0 32 98 15 c53 9
147 25 207 36 103 19 227 38 320 49 305 37 841 56 913 32 44 -14 129 -77 137
-101 4 -10 12 -18 19 -18 25 0 106 -145 106 -189 0 -10 7 -24 15 -31 8 -7 15
-25 15 -41 0 -26 4 -29 30 -29 24 0 30 4 30 23 l1 22 18 -22 c34 -41 106 -24
88 19 -4 8 -8 5 -12 -9 -4 -13 -10 -23 -14 -23 -16 1 -42 31 -56 64 -10 24
-21 36 -32 34 -10 -2 -20 8 -26 27 -6 16 -18 38 -29 49 -10 11 -18 32 -18 48
0 18 -5 28 -15 28 -8 0 -15 7 -15 15 0 8 -13 28 -30 45 -17 18 -27 36 -24 45
4 10 0 15 -16 15 -12 0 -31 5 -43 11 -21 12 -21 12 -2 18 34 12 366 -7 423
-23 30 -8 69 -25 88 -38 42 -27 89 -94 99 -137 3 -17 11 -33 16 -36 5 -4 9
-17 9 -30 0 -13 4 -34 9 -47 6 -13 12 -40 16 -60 l6 -38 1369 0 1370 0 0 559
0 558 -102 12 c-57 7 -188 18 -293 26 -104 8 -237 19 -295 25 -58 5 -170 14
-250 20 -162 13 -182 17 -161 29 10 7 12 24 9 62 -3 30 -1 75 5 100 9 39 19
51 61 80 l51 34 180 0 c99 0 318 -4 488 -8 l307 -9 0 30 0 30 -212 1 c-228 1
-584 19 -607 31 -7 4 -37 -1 -65 -11 -54 -20 -97 -25 -80 -10 5 5 42 20 82 34
60 21 77 23 102 14 21 -8 46 -8 92 1 35 6 111 11 171 12 59 0 156 6 215 13 59
8 151 13 205 12 l97 -2 0 284 0 283 -42 1 c-24 0 -71 0 -106 -1 -48 -1 -63 2
-68 14 -7 17 -82 23 -99 8 -10 -8 -101 5 -93 13 2 3 67 7 144 10 76 3 148 8
159 10 11 2 39 4 63 4 l42 1 0 286 c0 212 -3 283 -11 278 -18 -11 -81 -14 -97
-5 -21 12 23 41 54 35 13 -2 24 -1 25 3 0 5 2 109 4 233 2 124 4 230 6 235 2
6 6 -60 9 -145 3 -85 5 275 4 800 -2 849 -7 1098 -24 1113 -6 5 -109 40 -180
61 -30 9 -96 30 -146 46 -158 50 -443 62 -944 41 -414 -18 -1011 -73 -1140
-105 -30 -8 -82 -17 -115 -21 -33 -4 -89 -14 -125 -22 -90 -20 -232 -53 -251
-59 -15 -4 -16 -33 -14 -274 1 -148 -2 -275 -6 -282 -7 -11 -12 -11 -29 0 -15
9 -70 11 -223 7 -427 -10 -1745 -9 -1758 1 -8 6 -22 14 -33 18 -14 5 -17 13
-13 36 8 40 -10 90 -33 90 -26 0 -30 10 -21 56 5 21 16 95 26 164 9 69 23 157
31 195 7 39 17 102 20 140 4 39 10 77 14 85 5 8 28 20 52 27 187 51 314 83
332 83 11 0 34 7 50 15 15 8 36 15 45 15 9 0 59 11 111 25 52 15 111 30 130
35 113 29 395 104 450 120 36 11 79 22 95 26 38 7 196 46 295 72 41 11 100 25
130 32 116 26 351 91 365 100 6 4 37 13 70 19 33 6 82 15 108 21 33 7 55 6 68
-1 27 -14 120 -1 158 22 35 21 35 22 19 159 -5 47 -15 90 -21 95 -7 6 -12 26
-12 45 0 30 -4 35 -25 38 -14 2 -88 -13 -165 -33 -304 -80 -412 -107 -450
-115 -22 -5 -80 -21 -130 -36 -116 -34 -363 -100 -465 -123 -19 -4 -53 -13
-75 -19 -51 -15 -563 -140 -589 -144 -13 -2 -20 4 -21 17 -3 26 -17 80 -49
185 -13 47 -41 146 -60 220 -56 215 -58 220 -79 220 -13 0 -17 -5 -13 -17 3
-10 10 -38 15 -63 8 -42 31 -130 95 -363 15 -54 26 -109 24 -123 -3 -24 -7
-26 -65 -30 -46 -3 -65 0 -77 11 -16 16 -49 116 -66 201 -5 27 -15 67 -21 89
-6 22 -16 63 -23 90 -7 28 -18 62 -24 77 -6 15 -14 50 -18 78 -6 43 -10 50
-29 50 -21 0 -22 -3 -15 -32 4 -18 17 -71 29 -118 11 -47 21 -94 20 -105 0
-18 -24 61 -62 208 -9 35 -17 47 -30 47 -14 0 -17 -5 -13 -16 37 -97 30 -276
-23 -569 -5 -27 -15 -81 -22 -120 -15 -83 -22 -95 -59 -95 -15 0 -43 -6 -61
-14 -19 -7 -46 -16 -61 -20 -24 -5 -28 -3 -28 14 0 15 7 20 25 20 14 0 25 1
26 3 0 1 7 56 14 122 15 126 24 190 50 345 11 72 44 310 45 328 0 1 -13 2 -28
2 -27 0 -30 -4 -41 -52z m303 -300 c18 -62 21 -104 7 -78 -12 21 -41 154 -31
144 4 -5 15 -34 24 -66z m-49 -23 c9 -38 24 -90 32 -115 16 -48 20 -227 5
-242 -13 -13 -122 -39 -134 -32 -5 3 -7 16 -4 28 6 19 41 273 53 376 10 94 21
90 48 -15z m101 -200 c2 -21 -1 -17 -11 14 -8 25 -17 61 -20 80 -4 29 -2 26
11 -14 9 -27 18 -63 20 -80z m2055 82 c-8 -8 -11 -5 -11 9 0 27 14 41 18 19 2
-9 -1 -22 -7 -28z m-1846 -167 c-3 -5 -29 -13 -58 -17 -67 -10 -67 -10 -69 2
-3 11 40 22 95 24 22 1 36 -3 32 -9z m948 -27 c-7 -2 -19 -2 -25 0 -7 3 -2 5
12 5 14 0 19 -2 13 -5z m-1526 -409 c-3 -3 -12 -4 -19 -1 -8 3 -5 6 6 6 11 1
17 -2 13 -5z m67 -32 c4 -7 -17 -179 -43 -347 -6 -38 -16 -101 -21 -140 -6
-38 -14 -83 -18 -100 l-8 -30 -93 -5 c-51 -3 -95 -2 -97 2 -8 13 9 37 29 40
12 2 21 9 19 16 -1 7 10 85 24 175 14 89 28 178 30 197 2 19 6 64 10 100 l6
66 62 15 c74 19 93 21 100 11z m4492 -63 c5 -4 20 -6 32 -2 12 3 28 1 35 -4 6
-5 39 -18 72 -28 74 -22 164 -54 187 -66 10 -5 24 -9 32 -9 8 0 27 -5 43 -12
15 -6 35 -10 44 -9 9 1 20 -4 25 -11 11 -14 6 -734 -4 -723 -3 3 -7 56 -8 118
-2 187 -14 520 -20 555 -7 47 -26 40 -24 -10 2 -24 2 -59 1 -78 -2 -58 -21
-14 -21 51 0 30 -5 60 -12 67 -15 15 -39 16 -35 0 1 -6 -6 -14 -17 -16 -13 -3
-16 0 -11 9 6 9 2 11 -13 7 -13 -4 -22 -1 -22 5 0 7 -5 6 -11 -3 -7 -12 -9 -8
-7 15 3 26 -2 33 -32 47 -19 10 -43 17 -52 18 -10 0 -18 4 -18 9 0 11 -47 30
-84 33 -28 3 -30 0 -32 -32 -3 -57 -7 -58 -13 -5 -4 35 -10 50 -21 50 -13 0
-15 -28 -14 -195 3 -553 26 -1544 39 -1680 7 -77 5 -494 -2 -501 -5 -5 -96
-11 -203 -14 -107 -3 -207 -8 -223 -10 -25 -4 -27 -2 -25 28 3 28 0 32 -22 32
-22 0 -25 -4 -24 -32 l2 -31 -137 -7 c-142 -8 -916 1 -962 11 -19 4 -31 17
-42 45 l-16 40 -78 -7 -79 -7 -26 31 c-23 27 -40 95 -43 167 0 6 131 10 370
11 584 2 1198 26 1223 47 8 6 11 19 7 31 -8 26 -23 741 -29 1326 l-4 435 -32
9 c-41 12 -737 -15 -995 -38 -38 -4 -158 -14 -265 -22 -107 -8 -235 -22 -285
-29 -49 -8 -120 -16 -156 -18 -36 -2 -71 -7 -79 -12 -11 -7 -12 -107 -6 -587
5 -381 4 -578 -2 -578 -6 0 -21 17 -34 38 l-23 37 -3 515 c-1 283 -5 522 -8
530 -4 12 -7 12 -16 -4 -10 -18 -13 -619 -3 -636 8 -13 14 -390 6 -395 -5 -2
-28 6 -52 20 -24 13 -65 36 -91 50 -38 20 -48 31 -52 57 -3 18 -8 224 -12 458
-3 234 -9 490 -13 568 -3 79 -3 146 0 147 12 8 499 105 525 105 15 0 53 4 83
10 155 27 730 72 1116 88 230 9 655 4 671 -9z m-5521 -149 c-11 -5 -27 -9 -35
-9 -13 -1 -13 0 0 9 8 5 24 9 35 9 l20 0 -20 -9z m5575 -17 c0 -22 -2 -25 -10
-13 -13 20 -13 40 0 40 6 0 10 -12 10 -27z m328 -88 c0 -39 -2 -43 -14 -31
-16 17 -19 36 -4 36 6 0 10 9 10 20 0 11 2 20 4 20 2 0 4 -20 4 -45z m-331
-132 c-2 -16 -4 -3 -4 27 0 30 2 43 4 28 2 -16 2 -40 0 -55z m330 35 c-3 -8
-6 -5 -6 6 -1 11 2 17 5 13 3 -3 4 -12 1 -19z m-756 -9 c26 -16 -2 -22 -106
-24 -158 -2 -149 -20 13 -23 94 -1 138 -6 144 -15 4 -6 8 -145 8 -307 1 -162
3 -362 4 -445 8 -330 7 -868 -1 -875 -13 -12 -161 -18 -808 -30 -340 -7 -628
-8 -665 -3 -63 8 -65 9 -65 37 l0 29 80 2 c44 0 106 2 138 3 l58 2 -3 173 -3
172 132 5 c72 3 135 8 139 13 4 4 18 0 31 -8 13 -9 28 -13 33 -10 8 5 185 17
240 16 133 -3 215 -2 265 4 33 3 101 7 150 8 l90 2 3 -36 c3 -34 1 -37 -30
-44 -18 -4 -79 -9 -136 -12 -92 -4 -103 -2 -109 14 -9 25 -23 33 -60 33 -48 0
-63 -9 -63 -40 0 -19 6 -29 20 -33 21 -5 27 -31 10 -42 -17 -11 -290 -7 -326
5 -41 14 -65 1 -41 -21 8 -7 12 -22 9 -32 -5 -18 4 -18 192 -15 213 3 216 4
216 59 0 15 6 29 14 32 8 3 68 7 133 8 65 1 138 5 163 8 l45 6 5 55 c4 39 9
54 18 52 38 -8 72 -8 83 -2 9 6 11 52 5 202 -4 106 -11 337 -15 513 -7 276
-11 325 -26 353 -12 23 -21 30 -28 23 -6 -6 -16 -7 -27 -1 -15 8 -18 4 -22
-24 -2 -19 -1 -43 3 -53 5 -16 7 -16 17 4 7 12 9 29 6 37 -4 10 -1 16 8 16 12
0 15 -23 17 -122 1 -68 4 -179 6 -248 2 -69 7 -243 10 -387 l7 -262 -34 -6
c-43 -8 -103 -9 -211 -4 -87 5 -116 20 -55 29 21 3 29 8 21 13 -23 15 -82 -3
-85 -26 -3 -17 -12 -21 -68 -24 -36 -3 -73 -9 -84 -15 -15 -8 -22 -7 -32 7
-11 15 -25 16 -116 10 -57 -3 -253 -8 -437 -10 -184 -3 -336 -7 -339 -9 -2 -3
-2 -12 2 -21 4 -13 22 -15 93 -14 100 1 127 -6 117 -30 -3 -9 -5 -50 -3 -91 4
-101 3 -179 -2 -183 -2 -1 -42 0 -89 3 -77 5 -85 7 -83 25 1 11 -5 24 -13 28
-20 11 -19 51 2 43 10 -4 14 -1 11 6 -2 8 -22 13 -48 13 -24 0 -50 4 -57 8
-16 11 -5 28 13 20 9 -3 21 0 28 5 7 6 47 12 89 13 45 2 74 7 71 12 -3 6 -36
7 -76 4 -104 -9 -126 7 -128 88 0 28 -4 59 -8 70 -6 15 -9 11 -14 -20 -4 -22
-7 -57 -7 -77 0 -21 -4 -38 -10 -38 -5 0 -10 11 -10 24 0 25 -20 48 -20 24 -1
-7 -14 2 -30 21 -21 25 -30 48 -34 85 -14 131 -24 1111 -12 1123 3 4 21 8 38
9 18 2 51 8 73 13 22 5 85 14 140 20 55 6 143 16 195 22 52 7 115 13 140 14
25 1 97 7 160 14 251 27 902 48 931 30z m-4158 -246 c2 -5 7 -19 10 -33 11
-47 -1 -52 -134 -52 l-124 0 -3 40 -3 41 83 4 c46 1 102 4 125 5 23 1 44 -1
46 -5z m-1250 -90 c7 -11 -18 -161 -27 -170 -22 -23 -23 58 -1 155 5 22 19 29
28 15z m1311 -48 c11 -29 9 -467 -2 -474 -18 -11 -269 -13 -276 -2 -4 5 -7 77
-7 158 -1 81 -4 182 -8 223 -12 114 -15 111 149 109 102 -1 140 -5 144 -14z
m-454 -40 c10 -12 10 -18 0 -30 -13 -16 -40 -21 -40 -7 0 4 -95 7 -211 7 -196
0 -212 -1 -218 -18 -6 -17 -8 -17 -25 2 -19 21 -19 21 2 21 11 0 22 5 24 10 2
6 87 13 218 16 118 3 217 8 219 10 8 8 19 4 31 -11z m94 -265 c2 -107 7 -203
11 -212 4 -10 3 -18 -3 -18 -16 0 -22 38 -22 140 0 116 -18 298 -32 324 -8 15
-6 22 8 33 18 13 20 11 26 -29 5 -24 10 -131 12 -238z m433 54 c4 -155 2 -214
-6 -210 -7 5 -11 78 -11 223 0 119 3 213 7 210 3 -4 8 -104 10 -223z m78 215
c19 0 19 -1 1 -8 -24 -9 -66 -2 -66 11 0 6 10 8 23 4 12 -3 31 -6 42 -7z m300
1 c6 -1 12 -1 15 0 14 5 60 5 60 -1 0 -3 11 -4 25 -1 14 2 25 0 25 -6 0 -7
-47 -11 -132 -11 -114 0 -130 1 -110 13 20 10 79 13 117 6z m505 0 c0 -5 -4
-10 -10 -10 -5 0 -10 5 -10 10 0 6 5 10 10 10 6 0 10 -4 10 -10z m480 0 c0 -5
-19 -10 -42 -9 -37 1 -39 2 -18 9 36 12 60 12 60 0z m-2663 -14 c1 -1 -2 -17
-6 -36 -5 -27 -12 -35 -29 -36 -27 -2 -39 13 -23 29 7 7 11 7 11 1 0 -6 6 -11
14 -11 11 0 12 5 3 24 -5 13 -14 23 -19 23 -4 0 -8 5 -8 10 0 8 44 5 57 -4z
m1528 4 c4 -6 -8 -10 -30 -10 -22 0 -34 4 -30 10 3 6 17 10 30 10 13 0 27 -4
30 -10z m755 1 c0 -13 -19 -18 -51 -13 -16 2 -26 8 -23 13 7 12 74 12 74 0z
m-2193 -15 c-5 -13 17 -29 61 -41 13 -4 22 -2 22 4 0 6 9 11 20 11 11 0 20 5
20 11 0 6 7 4 15 -5 17 -17 20 -66 4 -66 -6 0 -13 9 -16 19 -4 17 -12 19 -61
15 -32 -3 -65 -7 -74 -9 -14 -2 -18 4 -18 29 0 18 3 36 7 39 12 12 25 7 20 -7z
m47 -2 c3 -8 2 -12 -4 -9 -6 3 -10 10 -10 16 0 14 7 11 14 -7z m3136 -44 c0
-32 -14 -40 -24 -14 -5 14 8 44 20 44 2 0 4 -13 4 -30z m2487 -27 c-3 -10 -5
-4 -5 12 0 17 2 24 5 18 2 -7 2 -21 0 -30z m-5294 20 c-7 -2 -21 -2 -30 0 -10
3 -4 5 12 5 17 0 24 -2 18 -5z m2192 -33 c3 -5 2 -10 -4 -10 -5 0 -13 5 -16
10 -3 6 -2 10 4 10 5 0 13 -4 16 -10z m-2335 -56 c0 -8 -4 -14 -10 -14 -5 0
-10 2 -10 4 0 2 -3 12 -6 20 -5 12 -2 15 10 10 9 -3 16 -12 16 -20z m2640 10
c0 -2 -7 -4 -15 -4 -8 0 -15 4 -15 10 0 5 7 7 15 4 8 -4 15 -8 15 -10z m53 -1
c-7 -2 -21 -2 -30 0 -10 3 -4 5 12 5 17 0 24 -2 18 -5z m257 -13 c0 -11 -4
-20 -9 -20 -14 0 -23 18 -16 30 10 17 25 11 25 -10z m2897 -2 c-3 -8 -6 -5 -6
6 -1 11 2 17 5 13 3 -3 4 -12 1 -19z m-4349 0 c-6 -18 -28 -21 -28 -4 0 9 7
16 16 16 9 0 14 -5 12 -12z m1350 5 c-16 -2 -40 -2 -55 0 -16 2 -3 4 27 4 30
0 43 -2 28 -4z m-373 -76 c3 -29 5 -106 3 -171 l-3 -119 -40 -14 c-22 -7 -46
-15 -53 -18 -7 -2 -15 -5 -18 -5 -4 0 -8 83 -10 184 l-4 185 32 3 c93 9 86 12
93 -45z m-2625 39 c0 -3 -4 -8 -10 -11 -5 -3 -10 -1 -10 4 0 6 5 11 10 11 6 0
10 -2 10 -4z m2452 -71 c1 -41 2 -85 2 -97 1 -16 -4 -22 -14 -19 -8 2 -19 3
-25 2 -5 -1 -50 -3 -100 -6 -173 -7 -361 -16 -447 -21 l-88 -5 -1 28 c-5 96
-6 130 -2 144 3 12 27 19 106 28 157 18 159 18 370 19 l197 2 2 -75z m315 59
c-3 -3 -12 -4 -19 -1 -8 3 -5 6 6 6 11 1 17 -2 13 -5z m-1039 -134 c1 -63 5
-163 8 -223 7 -112 -1 -142 -33 -130 -9 3 -34 7 -57 7 l-41 1 0 109 0 110 44
2 c47 2 68 15 56 34 -5 9 -24 11 -57 7 l-49 -6 3 97 3 97 40 6 c83 13 80 18
83 -111z m1189 104 c-3 -3 -12 -4 -19 -1 -8 3 -5 6 6 6 11 1 17 -2 13 -5z
m145 -11 c-12 -2 -20 -8 -17 -13 3 -4 -4 -6 -16 -3 -27 8 -4 23 31 21 24 -1
24 -1 2 -5z m42 -113 c-1 -25 -2 -63 -4 -85 l-2 -40 -7 45 c-7 41 -7 108 -1
170 4 39 15 -35 14 -90z m-3366 83 c-10 -2 -28 -2 -40 0 -13 2 -5 4 17 4 22 1
32 -1 23 -4z m328 -20 c-10 -10 -19 5 -10 18 6 11 8 11 12 0 2 -7 1 -15 -2
-18z m1483 -15 c-1 -13 1 -111 4 -218 4 -107 2 -211 -2 -230 -6 -24 -10 30
-11 165 -1 110 -2 207 -1 216 1 9 -3 27 -8 41 -7 18 -6 29 2 37 15 15 17 14
16 -11z m-1335 -12 c-4 -11 4 -14 33 -14 62 0 73 -2 73 -11 0 -16 -118 -10
-124 5 -7 18 4 45 15 39 4 -3 6 -12 3 -19z m-211 -15 c8 -8 -11 -11 -76 -11
-77 0 -98 5 -82 22 10 9 147 0 158 -11z m77 -1 c0 -5 -7 -10 -15 -10 -8 0 -15
5 -15 10 0 6 7 10 15 10 8 0 15 -4 15 -10z m79 1 c12 -8 9 -11 -11 -16 -28 -7
-48 -1 -48 16 0 12 40 12 59 0z m264 -22 c-5 -5 -20 -5 -33 -2 l-25 7 25 6
c28 8 46 2 33 -11z m5171 -41 c-9 -84 -14 -86 -14 -5 0 40 4 67 10 67 7 0 9
-21 4 -62z m-5597 -5 c4 -10 -16 -13 -76 -13 -71 0 -92 6 -77 21 3 2 37 4 77
4 49 0 74 -4 76 -12z m377 -25 c8 -33 7 -821 -2 -833 -14 -19 -100 -75 -116
-75 -9 0 -16 -8 -16 -19 0 -21 -46 -81 -62 -81 -5 0 -8 15 -6 33 2 22 10 35
26 42 27 12 24 29 -7 33 -34 5 -42 -9 -46 -76 -4 -59 -39 -134 -59 -128 -6 1
-9 182 -8 448 1 382 -1 448 -13 458 -13 11 -13 14 2 26 15 10 18 27 17 96 -1
50 3 86 10 90 6 4 70 8 142 8 128 0 132 -1 138 -22z m72 -62 c3 -41 1 -66 -6
-66 -10 0 -13 16 -12 85 1 55 1 59 7 53 3 -3 8 -35 11 -72z m2006 59 c4 -5 8
-43 8 -84 0 -64 -3 -76 -22 -93 -51 -44 -83 -50 -283 -49 -104 0 -232 -3 -282
-7 l-93 -7 0 115 0 115 68 -1 c37 0 123 5 192 12 150 14 402 14 412 -1z m272
-77 c-3 -4 -14 -8 -25 -8 -14 0 -19 7 -19 30 l0 30 25 -22 c13 -11 22 -25 19
-30z m-2719 -410 c0 -245 -3 -449 -7 -453 -4 -4 -12 -4 -19 1 -7 4 -43 6 -81
5 l-68 -2 4 43 c6 49 8 399 4 534 -2 59 -8 97 -17 107 -9 12 -10 21 -3 30 6 6
13 46 17 87 9 107 4 101 92 98 l78 -3 0 -447z m2936 421 c19 -6 41 -13 49 -16
8 -4 19 -5 23 -4 5 1 22 3 39 5 17 2 34 10 39 17 6 9 9 -2 8 -31 0 -36 -2 -41
-9 -23 -7 17 -16 21 -44 19 -36 -3 -178 18 -196 29 -6 3 -10 1 -10 -4 0 -6
-15 -11 -34 -11 -34 0 -52 11 -39 24 10 10 137 7 174 -5z m-1885 -6 c-18 -18
-80 -31 -100 -21 -27 15 -128 19 -143 6 -9 -7 -22 -6 -46 6 -31 15 -25 16 132
16 90 0 161 -3 157 -7z m4544 -64 c0 -5 -4 -9 -10 -9 -5 0 -10 7 -10 16 0 8 5
12 10 9 6 -3 10 -10 10 -16z m10 -65 c0 -8 -4 -14 -10 -14 -5 0 -10 9 -10 21
0 11 5 17 10 14 6 -3 10 -13 10 -21z m-13 -86 c-2 -13 -4 -3 -4 22 0 25 2 35
4 23 2 -13 2 -33 0 -45z m-3353 36 c28 -11 17 -22 -56 -58 -99 -47 -208 -82
-300 -97 -104 -16 -108 -13 -108 63 0 62 1 63 28 64 15 0 94 6 175 13 82 7
159 10 172 7 13 -3 34 -2 47 3 13 6 24 10 25 10 1 1 8 -2 17 -5z m-506 -114
l-3 -55 -58 -9 c-31 -5 -59 -7 -61 -5 -2 2 -6 36 -8 74 l-3 70 55 5 c70 7 82
-5 78 -80z m-1249 -45 c0 -27 -4 -70 -8 -95 -7 -35 -9 -20 -9 70 0 73 3 108 8
95 5 -11 9 -42 9 -70z m1071 -10 c0 -8 -7 -15 -15 -15 -16 0 -20 12 -8 23 11
12 23 8 23 -8z m-40 -9 c0 -9 -15 -16 -42 -19 -51 -6 -207 -44 -305 -75 -20
-6 -33 -7 -33 -1 0 5 9 9 20 9 12 0 35 7 53 17 33 17 186 60 247 69 19 3 36 7
39 9 9 10 21 5 21 -9z m-803 -62 c-3 -3 -12 -4 -19 -1 -8 3 -5 6 6 6 11 1 17
-2 13 -5z m4903 -21 c0 -21 -3 -24 -9 -14 -5 8 -7 20 -4 28 8 21 13 15 13 -14z
m-4733 1 c-3 -3 -12 -4 -19 -1 -8 3 -5 6 6 6 11 1 17 -2 13 -5z m158 -14 c3
-5 2 -10 -4 -10 -5 0 -13 5 -16 10 -3 6 -2 10 4 10 5 0 13 -4 16 -10z m75 -6
c0 -2 -9 -4 -21 -4 -11 0 -18 4 -14 10 5 8 35 3 35 -6z m-415 -14 c-3 -5 -12
-10 -20 -10 -8 0 -17 5 -20 10 -4 6 5 10 20 10 15 0 24 -4 20 -10z m352 -36
c3 -9 -66 -42 -142 -69 -23 -8 -276 -7 -284 1 -11 11 17 38 54 51 58 20 149
30 264 29 66 -1 106 -5 108 -12z m2613 -112 c0 -45 -15 -31 -25 22 -6 36 -5
38 9 27 9 -8 16 -29 16 -49z m-3172 6 c-6 -18 -28 -21 -28 -4 0 9 7 16 16 16
9 0 14 -5 12 -12z m1862 -43 c9 -11 22 -14 49 -8 47 9 70 7 98 -8 40 -22 25
-29 -57 -29 -62 0 -82 3 -86 15 -8 20 -26 19 -68 -6 -39 -23 -74 -25 -178 -14
-97 11 -90 30 17 51 91 18 210 17 225 -1z m-2356 -291 c3 -26 6 -66 6 -89 l0
-41 -82 0 c-81 1 -83 2 -85 26 -2 14 -4 41 -6 60 -5 49 1 62 27 55 35 -10 70
-29 79 -42 13 -20 29 -15 22 6 -3 11 -1 22 5 26 5 3 10 15 10 26 0 38 17 18
24 -27z m2882 19 c3 -10 10 -26 15 -35 16 -30 10 -48 -18 -61 -16 -6 -32 -17
-38 -23 -25 -27 -155 -103 -205 -119 -30 -10 -71 -24 -90 -31 -138 -52 -353
-85 -456 -69 -43 6 -44 7 -44 45 0 22 7 57 15 77 8 21 19 58 23 83 l7 45 85 8
c47 4 137 10 200 11 63 2 140 9 170 15 69 13 235 50 275 61 47 12 55 11 61 -7z
m-959 -53 c47 -10 94 -15 104 -13 28 8 32 -17 16 -104 -21 -109 -42 -157 -64
-148 -17 7 -70 23 -202 59 -30 8 -59 20 -64 25 -6 6 -19 11 -29 11 -13 0 -18
8 -18 28 0 29 20 100 41 145 13 28 14 28 72 22 33 -4 98 -15 144 -25z m-1630
-46 c-3 -3 -12 -4 -19 -1 -8 3 -5 6 6 6 11 1 17 -2 13 -5z m5335 -154 c-4 -27
-8 -30 -43 -30 -22 0 -39 5 -39 10 0 6 11 10 25 10 14 0 30 9 37 20 18 28 25
25 20 -10z m-2528 -37 c44 -41 49 -72 17 -106 -43 -45 -138 -154 -147 -168 -5
-8 -38 -36 -72 -62 -71 -52 -59 -50 -269 -47 -81 1 -133 -2 -133 -8 0 -5 6
-10 13 -9 51 2 179 -6 169 -10 -9 -4 -10 -8 -2 -18 15 -18 -55 -54 -72 -37 -8
8 -7 13 5 18 27 10 20 24 -13 24 -32 0 -70 -26 -70 -47 0 -18 17 -16 28 3 5 9
14 14 21 10 19 -12 12 -36 -14 -46 -14 -5 -35 -19 -47 -30 -12 -11 -28 -20
-35 -20 -7 0 -13 -10 -13 -23 0 -36 -20 -55 -84 -77 -77 -26 -85 -25 -132 8
-21 16 -46 32 -54 36 -8 4 -33 18 -55 31 -74 45 -134 61 -142 39 -3 -9 22 -20
95 -39 12 -4 22 -13 22 -22 0 -13 -9 -15 -52 -10 -29 4 -64 15 -78 25 -38 27
-70 98 -70 154 0 56 -23 49 240 73 256 23 592 72 621 91 7 4 7 10 1 16 -10 10
-42 6 -237 -32 -62 -12 -165 -19 -165 -11 0 3 17 11 38 18 233 70 227 68 334
136 31 21 60 37 64 37 4 0 30 15 58 34 28 18 74 46 101 61 28 15 54 31 60 36
16 15 29 10 69 -28z m896 27 c0 -13 -11 -13 -30 0 -12 8 -11 10 8 10 12 0 22
-4 22 -10z m66 -17 c-3 -8 -6 -17 -6 -19 0 -2 -6 -4 -14 -4 -17 0 -28 38 -12
43 19 7 37 -5 32 -20z m49 3 c16 -16 402 -33 512 -23 40 4 62 3 58 -3 -7 -11
-544 -14 -582 -4 -14 4 -23 14 -23 25 0 22 16 25 35 5z m945 -17 c0 -5 -37 -8
-82 -8 l-83 2 68 8 c38 4 71 10 74 13 8 7 23 -3 23 -15z m80 7 c0 -3 -4 -8
-10 -11 -5 -3 -10 -1 -10 4 0 6 5 11 10 11 6 0 10 -2 10 -4z m-5140 -84 c0 -4
-13 -21 -28 -38 -15 -17 -43 -57 -62 -89 -33 -56 -60 -80 -60 -55 0 12 58 104
100 157 23 30 50 44 50 25z m4014 -17 c-4 -8 -8 -15 -10 -15 -2 0 -4 7 -4 15
0 8 4 15 10 15 5 0 7 -7 4 -15z m116 5 c0 -5 -2 -10 -4 -10 -3 0 -8 5 -11 10
-3 6 -1 10 4 10 6 0 11 -4 11 -10z m1093 -47 c-13 -2 -35 -2 -50 0 -16 2 -5 4
22 4 28 0 40 -2 28 -4z m85 0 c-10 -2 -26 -2 -35 0 -10 3 -2 5 17 5 19 0 27
-2 18 -5z m-4363 -37 c-49 -68 -77 -112 -90 -136 -21 -40 -44 -50 -120 -54
-79 -4 -79 -4 33 110 58 59 91 85 123 96 46 15 71 8 54 -16z m2421 -8 c34 -16
44 -27 44 -45 0 -33 -40 -123 -54 -123 -7 0 -16 30 -23 73 -6 39 -14 82 -18
95 -9 27 -3 28 51 0z m-1805 -33 c3 -1 23 -295 21 -312 l-3 -23 -27 25 c-15
14 -30 25 -35 25 -5 0 -32 11 -60 24 -29 14 -71 31 -94 38 -41 12 -54 30 -33
43 6 4 17 21 25 38 20 42 62 116 75 132 8 10 100 17 131 10z m3517 -52 l-3
-58 -532 -2 -533 -2 0 53 c0 29 3 56 7 59 3 4 244 7 535 7 l529 0 -3 -57z
m728 -18 c-1 -19 -6 -30 -16 -30 -8 0 -20 -4 -26 -7 -11 -8 -24 -1 -24 13 0 3
9 9 20 12 15 4 20 14 20 39 0 19 3 38 7 42 10 9 20 -31 19 -69z m-41 45 c-3
-5 -12 -7 -20 -3 -21 7 -19 13 6 13 11 0 18 -4 14 -10z m-2578 -22 c-3 -8 -6
-5 -6 6 -1 11 2 17 5 13 3 -3 4 -12 1 -19z m108 -8 c17 -32 20 -125 6 -163 -8
-22 -58 -63 -66 -55 -9 9 13 218 24 232 18 21 18 21 36 -14z m-1520 -20 c42
-5 120 -12 173 -15 53 -3 98 -8 101 -10 14 -15 -28 -20 -175 -24 -118 -2 -164
-6 -161 -15 5 -15 48 -23 123 -25 33 0 63 -4 66 -7 4 -3 -2 -25 -13 -49 -18
-40 -18 -45 -3 -80 8 -21 13 -44 10 -51 -3 -9 2 -14 14 -14 11 0 20 -7 20 -15
0 -9 -9 -15 -23 -15 -13 0 -27 -4 -32 -9 -14 -14 -180 -45 -199 -38 -13 5 -15
31 -15 159 -1 84 -3 167 -5 183 -5 36 11 60 29 45 7 -6 47 -15 90 -20z m1424
-118 c1 -80 -16 -142 -38 -142 -12 0 -142 -89 -161 -109 -8 -9 -35 -33 -60
-53 -25 -20 -63 -53 -85 -73 -22 -21 -59 -51 -83 -68 l-42 -31 -60 29 c-33 16
-68 37 -78 48 -16 18 -15 20 13 40 16 12 63 51 105 87 70 60 153 119 302 214
31 20 69 48 85 64 16 15 38 32 48 38 11 6 24 28 30 49 9 36 10 37 16 14 4 -13
7 -61 8 -107z m303 65 c29 -24 88 -70 131 -103 43 -32 97 -73 120 -91 23 -18
78 -57 122 -87 118 -81 282 -209 305 -238 35 -46 40 -72 28 -160 -15 -116 -30
-146 -75 -154 -59 -11 -322 12 -370 33 -46 19 -55 38 -24 48 12 3 21 19 25 40
4 19 14 39 24 44 20 11 16 16 -21 25 -23 6 -28 4 -27 -11 4 -31 0 -36 -16 -22
-14 11 -18 11 -29 -4 -16 -22 -22 -21 -28 3 -4 14 -14 20 -36 20 -17 0 -34 7
-39 15 -7 13 -14 14 -37 5 -35 -13 -55 7 -28 28 16 11 16 12 0 12 -9 0 -17 -4
-17 -10 0 -17 -22 -11 -57 16 -19 14 -46 29 -61 33 -29 8 -37 36 -10 36 27 0
31 12 9 25 -12 6 -21 21 -21 35 0 13 -4 26 -9 29 -12 7 -21 -18 -21 -55 0 -18
-4 -28 -10 -24 -12 8 -4 138 10 165 5 10 7 32 4 49 -9 44 11 39 29 -6 14 -35
13 -40 -4 -62 -28 -35 -23 -51 6 -19 22 26 25 26 34 10 8 -13 9 -9 4 18 -3 19
-11 42 -18 50 -7 8 -16 26 -20 40 -4 14 -12 30 -17 37 -5 7 -7 26 -3 44 5 22
3 34 -6 40 -12 8 -11 12 2 22 9 6 14 17 12 23 -5 14 65 144 77 144 4 0 32 -19
62 -43z m2191 36 c-7 -2 -19 -2 -25 0 -7 3 -2 5 12 5 14 0 19 -2 13 -5z m-593
-73 c10 -6 -168 -10 -520 -10 -321 0 -541 4 -550 10 -10 6 178 9 520 10 332 0
541 -4 550 -10z m315 0 c4 -7 -43 -10 -147 -9 -168 2 -149 13 29 17 69 2 114
-1 118 -8z m328 3 c-7 -2 -19 -2 -25 0 -7 3 -2 5 12 5 14 0 19 -2 13 -5z m-96
-9 c-3 -3 -12 -4 -19 -1 -8 3 -5 6 6 6 11 1 17 -2 13 -5z m-5900 -139 c-24
-62 -45 -77 -73 -54 -13 10 -12 15 4 33 11 12 27 37 37 56 10 19 25 43 34 54
15 18 16 18 19 -5 1 -13 -8 -51 -21 -84z m5817 65 l1 -35 -50 -3 c-28 -2 -59
-11 -70 -20 -44 -38 -95 -55 -95 -32 0 6 5 10 12 10 6 0 8 3 5 6 -4 4 -14 1
-22 -6 -11 -9 -12 -16 -5 -20 11 -7 -22 -43 -118 -132 -28 -27 -56 -48 -61
-48 -6 0 -13 -11 -17 -25 -3 -14 -11 -25 -18 -25 -6 0 -222 0 -481 0 -402 0
-472 3 -490 16 -65 48 -137 99 -187 132 -59 38 -77 60 -55 67 6 2 47 7 90 10
57 5 80 11 84 22 11 27 -12 48 -58 53 -35 4 -44 9 -44 24 0 13 10 22 27 27 15
4 345 7 733 7 388 0 708 2 711 5 3 3 29 5 57 4 l51 -2 0 -35z m-2273 -181
c-12 -134 -23 -173 -44 -166 -19 6 -21 57 -3 57 10 0 13 6 9 15 -7 20 -25 14
-29 -9 -3 -24 -10 -30 -29 -22 -12 4 -14 14 -9 48 11 64 33 113 46 100 20 -20
54 33 37 59 -6 10 -9 6 -10 -16 0 -16 -3 -25 -5 -18 -3 7 -12 9 -20 6 -8 -3
-14 0 -14 7 0 20 20 50 34 50 8 0 19 7 26 15 7 9 15 13 18 11 2 -3 -1 -64 -7
-137z m-3497 74 c-8 -33 -23 -63 -24 -47 0 27 13 74 21 74 5 0 6 -12 3 -27z
m223 -41 c-9 -21 -21 -54 -27 -74 -11 -37 -40 -53 -40 -23 0 21 74 156 79 143
2 -5 -4 -26 -12 -46z m85 27 c-5 -13 -13 -47 -17 -76 -7 -51 -36 -95 -49 -74
-8 13 18 92 46 143 23 41 34 45 20 7z m5918 15 c0 -16 -45 -21 -147 -16 -83 4
-85 5 -52 17 44 15 199 14 199 -1z m-5296 -5 c7 -6 -32 -200 -43 -211 -3 -4
-56 -2 -116 5 l-110 12 3 33 c3 37 45 134 65 150 7 6 27 10 45 10 18 -1 34 1
36 3 7 6 114 5 120 -2z m4840 -141 c-3 -83 -6 -154 -9 -156 -9 -10 -26 12 -24
31 3 44 0 46 -53 45 -29 0 -105 0 -168 1 -93 2 -111 5 -96 14 81 52 112 75
163 123 32 30 61 54 65 54 5 0 17 9 28 20 13 13 33 20 59 20 l39 0 -4 -152z
m-5239 39 c-19 -42 -37 -77 -41 -77 -11 0 4 69 19 85 9 8 19 25 23 38 8 28 27
52 31 40 2 -5 -12 -44 -32 -86z m132 86 c-5 -11 -31 -68 -61 -135 -23 -54 -46
-76 -46 -44 0 46 73 186 97 186 8 0 12 -3 10 -7z m493 -80 c-15 -95 -24 -113
-55 -113 -30 0 -32 18 -9 63 30 56 34 67 34 77 0 15 32 62 38 56 3 -3 -1 -40
-8 -83z m2200 37 c0 -11 -6 -23 -13 -26 -8 -3 -12 -16 -9 -33 5 -33 -17 -53
-24 -24 -4 15 -12 19 -30 15 -38 -7 -29 21 16 48 22 14 40 28 40 33 0 17 20 5
20 -13z m2643 -7 c-7 -2 -19 -2 -25 0 -7 3 -2 5 12 5 14 0 19 -2 13 -5z
m-3743 -20 c3 -3 -6 -14 -20 -25 -14 -12 -20 -23 -14 -25 9 -3 10 -40 7 -128
-4 -78 -2 -140 6 -169 9 -36 9 -52 -1 -69 -12 -22 -14 -28 -16 -59 -1 -10 -6
-18 -12 -18 -15 0 -12 56 5 97 14 32 14 39 0 60 -9 13 -15 34 -15 46 1 12 2
49 1 82 -1 46 -4 56 -12 42 -5 -9 -7 -22 -4 -27 10 -16 -23 -43 -43 -34 -9 4
-23 6 -29 5 -8 -1 -13 9 -13 24 0 23 -2 25 -21 14 -32 -16 -63 2 -76 45 -10
31 -9 36 5 36 10 0 5 6 -12 15 -16 9 -36 13 -43 11 -7 -3 -13 -1 -13 4 0 13
45 34 120 54 36 10 74 22 85 27 19 8 105 2 115 -8z m-775 -28 c28 -14 57 -25
63 -25 7 0 12 -4 12 -10 0 -5 9 -10 21 -10 22 0 22 -19 -2 -32 -8 -4 -49 -20
-92 -34 -70 -24 -99 -45 -84 -60 2 -3 51 10 106 29 108 37 136 38 147 5 8 -26
4 -29 -86 -76 -41 -22 -97 -53 -125 -71 -27 -17 -56 -31 -66 -31 -15 0 -109
91 -109 106 0 17 34 134 49 169 10 22 21 48 25 59 5 16 13 17 47 12 23 -4 65
-18 94 -31z m-1026 -61 c-13 -25 -32 -34 -24 -11 21 60 28 71 33 53 2 -10 -2
-29 -9 -42z m5561 36 c0 -5 -17 -10 -37 -9 -31 0 -34 2 -18 9 28 12 55 12 55
0z m150 0 c0 -5 -4 -10 -10 -10 -5 0 -10 5 -10 10 0 6 5 10 10 10 6 0 10 -4
10 -10z m60 -18 c0 -15 -2 -15 -10 -2 -13 20 -13 33 0 25 6 -3 10 -14 10 -23z
m-3005 -11 c19 -8 18 -9 -7 -21 -16 -8 -24 -18 -21 -26 8 -21 29 -17 47 10 14
22 18 23 41 13 19 -9 25 -20 25 -43 0 -19 -6 -34 -15 -38 -8 -3 -15 -9 -14
-13 6 -39 0 -42 -51 -20 -46 19 -65 37 -40 37 6 0 5 8 -2 20 -21 32 -38 25
-28 -11 9 -31 9 -31 -23 -25 -17 4 -36 11 -41 16 -11 11 10 40 30 40 8 0 14 4
14 8 0 5 11 15 25 22 14 7 25 19 25 27 0 15 6 15 35 4z m2632 -48 c-3 -10 -5
-4 -5 12 0 17 2 24 5 18 2 -7 2 -21 0 -30z m-3342 7 c39 -12 104 -27 145 -35
81 -16 140 -42 140 -62 0 -8 -13 -13 -31 -13 -25 0 -29 -3 -24 -19 3 -11 1
-22 -5 -26 -5 -3 -10 -12 -10 -18 0 -7 4 -6 10 3 8 12 10 11 10 -7 0 -16 -8
-25 -25 -29 -27 -7 -55 10 -55 32 0 8 -8 14 -19 14 -12 0 -18 -7 -17 -17 1
-15 -9 -19 -54 -21 -60 -4 -255 9 -229 15 9 2 21 14 27 26 14 30 22 107 11
107 -5 0 -9 -4 -9 -10 0 -5 -7 -10 -15 -10 -18 0 -19 13 -3 57 11 29 16 33 48
33 19 0 67 -9 105 -20z m3714 -72 c1 -10 -6 -18 -14 -18 -16 0 -20 35 -8 67 6
16 8 15 14 -7 4 -14 7 -33 8 -42z m-359 20 c0 -40 -17 -52 -18 -13 -1 19 3 35
8 35 6 0 10 -10 10 -22z m-2480 -3 c0 -8 -7 -15 -15 -15 -16 0 -20 12 -8 23
11 12 23 8 23 -8z m2570 6 c0 -6 -4 -13 -10 -16 -5 -3 -10 1 -10 9 0 9 5 16
10 16 6 0 10 -4 10 -9z m-400 -22 c0 -5 -7 -9 -15 -9 -8 0 -15 7 -15 15 0 9 6
12 15 9 8 -4 15 -10 15 -15z m608 10 c-2 -6 -8 -10 -13 -10 -5 0 -11 4 -13 10
-2 6 4 11 13 11 9 0 15 -5 13 -11z m-870 -11 c-6 -18 -28 -21 -28 -4 0 9 7 16
16 16 9 0 14 -5 12 -12z m627 2 c-3 -5 -10 -10 -16 -10 -5 0 -9 5 -9 10 0 6 7
10 16 10 8 0 12 -4 9 -10z m-249 -17 c11 29 24 19 24 -18 0 -31 -3 -35 -25
-35 -18 0 -25 5 -25 19 0 11 -5 21 -12 23 -7 3 -8 9 -3 18 6 10 11 9 21 -5 12
-16 14 -17 20 -2z m-3318 -30 c-1 -22 -9 -44 -21 -56 -17 -17 -19 -18 -14 -3
4 10 10 35 13 57 8 49 24 51 22 2z m1095 23 c18 -14 25 -86 8 -86 -5 0 -28 8
-52 19 -24 10 -52 21 -63 25 -15 5 -16 9 -6 21 16 19 30 19 30 0 0 -8 7 -15
15 -15 25 0 14 32 -15 43 -8 3 3 6 25 6 22 0 48 -6 58 -13z m-1723 -13 c0 -10
12 -29 25 -42 16 -14 25 -35 26 -55 0 -25 2 -27 8 -12 5 14 10 16 15 8 4 -7 4
-16 1 -22 -3 -5 0 -7 8 -5 9 4 22 -13 40 -49 21 -43 27 -69 27 -121 0 -71 -16
-151 -32 -161 -17 -11 -29 20 -14 34 19 20 -7 72 -37 72 -16 0 -18 -3 -9 -12
16 -16 15 -28 -1 -28 -29 0 -44 -77 -16 -81 13 -2 22 -5 41 -13 16 -7 16 -11
3 -37 -23 -43 -45 -51 -101 -34 -26 8 -50 13 -53 12 -9 -3 -11 9 -10 51 l2 37
7 -35 c7 -33 7 -31 9 18 0 29 6 52 12 52 6 0 10 -12 9 -27 -4 -58 -1 -73 15
-67 10 4 15 18 15 38 -1 17 1 45 4 61 3 17 6 56 8 87 3 52 5 57 23 53 11 -3
14 -2 8 1 -7 3 -13 14 -13 25 0 25 -17 24 -25 -1 -8 -26 -18 -25 -30 2 -12 26
-35 36 -35 14 0 -8 -9 -31 -21 -50 -11 -20 -22 -52 -24 -73 -8 -91 -29 -213
-37 -213 -15 0 -21 31 -10 55 18 39 27 222 12 240 -7 8 -10 23 -8 33 4 15 -1
18 -27 18 -17 0 -38 5 -46 12 -8 6 -29 24 -47 38 -41 33 -39 35 83 100 50 26
106 58 125 71 41 27 70 30 70 6z m2760 -3 c-11 -21 -40 -17 -40 6 0 8 10 14
25 14 22 0 24 -3 15 -20z m-1562 -58 c-2 -9 6 -16 20 -17 12 -1 28 -10 36 -20
7 -10 17 -15 23 -12 5 3 26 -8 47 -24 20 -17 42 -29 50 -26 20 8 40 -9 32 -28
-5 -15 -17 -16 -84 -13 -42 3 -90 10 -107 18 l-30 12 30 13 c21 9 36 10 49 3
14 -8 17 -7 14 4 -3 8 -17 12 -34 10 -85 -7 -205 -2 -226 9 -20 12 -21 14 -5
17 10 2 26 0 35 -4 22 -9 74 -5 86 7 6 5 14 4 21 -1 9 -7 16 -5 25 5 7 9 8 15
2 15 -6 0 -13 -6 -15 -12 -3 -8 -6 -6 -6 5 -1 21 -17 22 -25 2 -6 -16 -48 -17
-62 -2 -4 4 -16 7 -26 7 -11 0 -16 4 -12 11 3 6 17 9 30 6 26 -5 32 15 14 43
-5 9 -5 19 1 26 13 16 120 -34 117 -54z m173 49 c41 -11 85 -23 98 -27 29 -9
81 -53 81 -68 0 -6 9 -17 19 -23 18 -11 39 -48 55 -96 3 -10 -1 -28 -10 -40
-16 -22 -16 -21 -10 11 3 17 1 32 -3 32 -5 0 -12 13 -16 29 -3 16 -16 33 -30
39 -17 8 -25 20 -25 36 0 14 -7 26 -17 30 -123 42 -129 43 -136 16 -7 -28 -24
-25 -31 5 -4 15 -11 23 -17 19 -6 -4 -29 -1 -51 7 l-40 13 24 18 c28 22 21 22
109 -1z m1569 -15 c0 -7 -11 -16 -25 -18 -29 -6 -36 18 -7 25 29 8 32 7 32 -7z
m698 -16 c-1 -16 -5 -30 -10 -30 -12 0 -21 27 -14 45 10 26 25 16 24 -15z
m182 15 c0 -10 -11 -15 -35 -15 -19 0 -37 0 -40 0 -3 0 -5 3 -5 8 0 4 11 7 24
7 13 0 28 3 32 8 12 12 24 8 24 -8z m430 5 c0 -5 -2 -10 -4 -10 -3 0 -8 5 -11
10 -3 6 -1 10 4 10 6 0 11 -4 11 -10z m-3840 -16 c0 -8 -5 -12 -10 -9 -6 4 -8
11 -5 16 9 14 15 11 15 -7z m655 -4 c0 -22 -29 -18 -33 3 -3 14 1 18 15 15 10
-2 18 -10 18 -18z m2463 -29 c-13 -21 -29 -23 -35 -5 -3 10 38 35 45 29 2 -2
-3 -13 -10 -24z m-1708 4 c10 -12 16 -12 26 -4 10 8 20 5 41 -15 29 -27 85
-62 116 -72 19 -7 24 -24 6 -24 -6 0 -42 16 -80 35 -39 19 -77 35 -85 35 -7 0
-14 4 -14 9 0 5 -9 13 -20 16 -11 3 -20 13 -20 21 0 18 14 18 30 -1z m2047 9
c-3 -3 -12 -4 -19 -1 -8 3 -5 6 6 6 11 1 17 -2 13 -5z m-972 -24 c3 -5 -1 -10
-10 -10 -9 0 -13 5 -10 10 3 6 8 10 10 10 2 0 7 -4 10 -10z m-1405 -21 c11
-19 10 -20 -9 -10 -27 15 -36 31 -17 31 8 0 20 -9 26 -21z m1970 11 c0 -5 -4
-10 -10 -10 -5 0 -10 5 -10 10 0 6 5 10 10 10 6 0 10 -4 10 -10z m220 -5 c0
-10 10 -15 33 -15 27 -1 29 -2 14 -11 -30 -17 -70 -7 -72 19 -1 12 4 22 12 22
7 0 13 -7 13 -15z m-1984 -26 c13 -14 15 -22 6 -31 -8 -8 -18 -3 -36 17 -14
15 -26 31 -26 36 0 13 38 -2 56 -22z m1724 25 c0 -3 -16 -12 -35 -20 -37 -15
-49 -36 -15 -27 11 3 20 1 20 -5 0 -16 -37 -25 -56 -14 -14 8 -14 12 7 32 30
28 79 50 79 34z m350 -4 c0 -5 -4 -10 -10 -10 -5 0 -10 5 -10 10 0 6 5 10 10
10 6 0 10 -4 10 -10z m-1690 -20 c0 -5 -9 -10 -19 -10 -11 0 -23 5 -26 10 -4
6 5 10 19 10 14 0 26 -4 26 -10z m1240 -3 c-14 -6 -29 -17 -33 -24 -9 -15 -33
-17 -41 -4 -7 11 52 41 79 40 17 0 17 -2 -5 -12z m285 4 c3 -5 1 -12 -5 -16
-13 -8 -50 3 -50 16 0 12 47 12 55 0z m-164 -19 c-13 -2 -27 0 -32 5 -6 6 3 7
23 4 28 -4 29 -6 9 -9z m419 14 c0 -3 -4 -8 -10 -11 -5 -3 -10 -1 -10 4 0 6 5
11 10 11 6 0 10 -2 10 -4z m305 -7 c10 -15 6 -17 -70 -23 -77 -6 -111 4 -79
23 25 14 141 14 149 0z m-1067 -9 c22 0 32 -5 32 -15 0 -13 -29 -15 -200 -15
-169 0 -200 2 -200 15 0 12 26 15 148 18 81 1 156 2 167 0 11 -1 35 -3 53 -3z
m125 -15 c-3 -8 -9 -15 -14 -15 -10 0 -12 24 -3 33 11 11 24 -3 17 -18z
m-2773 11 c0 -2 -3 -11 -6 -20 -9 -23 -24 -20 -24 4 0 11 7 20 15 20 8 0 15
-2 15 -4z m1684 -11 c11 -8 32 -15 48 -15 15 0 28 -4 28 -10 0 -23 -108 3
-125 30 -9 15 27 11 49 -5z m1681 5 c-3 -5 -10 -10 -16 -10 -5 0 -9 5 -9 10 0
6 7 10 16 10 8 0 12 -4 9 -10z m140 -10 c3 -5 -1 -10 -10 -10 -9 0 -13 5 -10
10 3 6 8 10 10 10 2 0 7 -4 10 -10z m-2243 -69 c0 -22 -5 -49 -11 -58 -8 -14
-10 -1 -11 52 0 51 3 66 11 58 6 -6 11 -30 11 -52z m1608 -11 c0 -28 3 -30 35
-30 41 0 49 -26 11 -36 -50 -12 -57 -33 -72 -201 l-7 -71 -106 4 c-58 3 -151
9 -206 14 -55 5 -188 14 -295 20 -107 6 -201 13 -208 15 -8 3 -10 14 -6 32 7
28 23 45 34 38 3 -2 7 13 8 32 4 55 37 82 111 89 68 8 81 18 85 66 2 18 4 36
5 40 0 4 119 9 264 11 144 1 281 3 305 5 41 2 42 1 42 -28z m-2858 -34 c15 10
-1 -34 -28 -78 -24 -37 -53 -64 -41 -37 3 8 16 40 29 71 13 31 25 52 26 47 2
-5 8 -6 14 -3z m3053 -5 c-7 -12 -94 -45 -101 -39 -7 8 67 47 89 47 10 1 16
-3 12 -8z m-3535 -65 c0 -22 -6 -36 -16 -40 -9 -4 -19 -4 -22 -2 -5 6 26 76
33 76 3 0 5 -15 5 -34z m3417 -4 c-18 -20 -35 -61 -48 -117 -7 -33 -8 -28 -4
29 5 70 22 106 53 106 13 0 13 -2 -1 -18z m-3327 -103 c0 -6 -4 -7 -10 -4 -5
3 -10 11 -10 16 0 6 5 7 10 4 6 -3 10 -11 10 -16z m3267 -191 c-3 -8 -6 -5 -6
6 -1 11 2 17 5 13 3 -3 4 -12 1 -19z m-3877 -152 c0 -16 -18 -31 -27 -22 -8 8
5 36 17 36 5 0 10 -6 10 -14z m744 -9 c12 -9 17 -23 14 -42 -3 -26 -8 -30 -36
-33 -59 -6 -84 41 -40 72 27 19 39 20 62 3z m727 3 c38 -21 18 -80 -27 -80
-38 0 -54 11 -54 37 0 42 41 64 81 43z m-991 -284 l0 -151 -29 -36 c-41 -49
-119 -75 -182 -59 -24 7 -57 14 -72 17 -25 5 -28 9 -25 37 3 29 5 31 43 29 22
-1 57 -5 78 -8 44 -8 87 14 87 45 0 23 -11 25 -56 8 -40 -14 -103 3 -132 36
-30 34 -47 101 -34 131 7 14 12 33 12 42 0 9 10 26 23 38 20 21 31 23 155 23
l132 0 0 -152z m280 9 l0 -145 -45 0 -45 0 0 145 0 145 45 0 45 0 0 -145z
m269 103 c29 -98 52 -130 64 -90 3 9 15 42 25 72 l19 55 51 3 c44 3 52 0 52
-14 0 -10 -7 -25 -15 -34 -16 -18 -53 -107 -62 -150 -3 -14 -11 -32 -18 -40
-6 -8 -15 -23 -18 -32 -5 -14 -17 -18 -50 -18 -42 0 -45 2 -62 43 -9 23 -23
54 -31 69 -8 14 -14 33 -14 42 0 9 -11 34 -25 56 -14 22 -25 49 -25 60 0 17 7
20 48 20 49 0 49 0 61 -42z m456 -103 l0 -140 -42 -3 c-39 -3 -43 -1 -44 20 0
13 -1 78 -2 146 l-2 123 45 -3 45 -3 0 -140z m468 105 c12 -30 17 -68 17 -145
l0 -105 -50 0 -50 0 0 110 0 110 -39 0 c-49 0 -51 -6 -51 -126 l0 -94 -50 0
-50 0 0 145 0 145 128 0 127 0 18 -40z m396 28 c11 -10 14 -10 18 0 3 7 23 12
49 12 l44 0 0 -150 c0 -139 -2 -153 -22 -185 -19 -29 -35 -39 -90 -56 -66 -20
-69 -20 -125 -3 -72 21 -77 26 -69 59 7 29 7 29 104 9 40 -8 89 11 98 38 8 28
0 32 -40 18 -42 -14 -109 1 -142 31 -33 31 -50 93 -36 133 7 18 12 38 12 46 0
7 10 23 23 35 18 19 34 23 93 24 44 1 75 -4 83 -11z m511 -80 c0 -71 4 -95 17
-110 43 -47 73 1 73 117 l0 85 50 0 50 0 0 -145 0 -145 -43 0 c-24 0 -48 5
-54 11 -8 8 -17 7 -34 -5 -38 -26 -91 -21 -124 14 -27 28 -29 36 -33 134 -2
58 -2 112 1 120 5 11 20 16 52 16 l45 0 0 -92z m470 82 c0 -7 6 -7 19 0 11 5
48 10 82 10 60 0 63 -1 101 -42 35 -38 38 -46 38 -99 0 -53 -3 -60 -42 -104
-35 -38 -51 -48 -86 -52 -34 -5 -49 -1 -72 16 -16 11 -31 21 -34 21 -3 0 -6
-30 -8 -67 l-3 -68 -40 0 -40 0 -3 198 -2 197 45 0 c25 0 45 -5 45 -10z m654
-212 c9 -41 16 -131 21 -248 5 -94 2 -131 -16 -210 -23 -100 -39 -130 -71
-130 -19 0 -19 1 1 26 18 23 21 42 22 123 0 53 4 154 8 226 4 77 4 142 -2 158
-6 19 -6 37 2 53 13 30 29 31 35 2z m-243 -55 c-8 -15 -10 -15 -11 -2 0 17 10
32 18 25 2 -3 -1 -13 -7 -23z m-3107 -26 c5 -22 9 -22 78 -19 50 3 76 9 84 20
10 14 15 13 45 -8 19 -13 43 -33 54 -45 11 -12 30 -25 43 -29 32 -10 28 -36
-5 -36 -16 0 -71 -5 -123 -10 -52 -5 -126 -12 -165 -16 -38 -3 -77 -8 -85 -11
-8 -2 -51 -9 -95 -14 -44 -5 -114 -16 -155 -24 -246 -49 -327 -56 -336 -30 -4
8 -26 20 -50 26 -37 10 -45 16 -52 43 -7 25 -14 31 -35 31 -30 1 -45 12 -31
24 5 4 47 14 94 21 155 22 188 28 210 35 15 5 21 3 19 -7 -3 -26 1 -38 16 -38
7 0 18 -6 22 -13 19 -29 61 -39 148 -36 68 3 89 8 99 22 7 9 21 17 30 17 9 0
16 3 16 8 0 4 10 18 23 32 12 14 22 32 22 40 0 8 9 15 20 15 11 0 26 6 33 13
7 6 26 12 42 12 21 0 29 -6 34 -23z m646 -37 c79 -12 99 -17 126 -35 31 -20
32 -39 2 -29 -13 4 -30 7 -38 7 -8 0 -86 -3 -172 -7 l-157 -8 -34 34 c-19 18
-43 38 -53 45 -15 9 12 10 126 6 80 -2 170 -8 200 -13z m2507 1 c21 1 51 -2
67 -6 18 -5 36 -4 48 4 23 15 42 5 32 -18 -4 -9 -10 -95 -13 -192 -5 -153 -9
-180 -24 -197 -12 -13 -16 -28 -13 -40 7 -20 9 -20 -80 -38 -74 -14 -161 69
-175 168 -11 79 -10 248 2 291 9 35 13 37 44 35 19 -1 37 1 41 5 4 4 13 2 20
-4 7 -6 30 -10 51 -8z"/>
<path d="M5414 2925 c-4 -9 -2 -21 4 -27 15 -15 44 -1 40 19 -4 23 -36 29 -44
8z"/>
<path d="M5537 2928 c-2 -7 0 -21 5 -30 7 -15 12 -16 34 -6 14 7 23 18 22 27
-4 20 -54 27 -61 9z"/>
<path d="M4634 4719 c-9 -15 3 -23 34 -24 19 0 27 -5 27 -17 0 -10 5 -22 12
-29 9 -9 11 -1 11 33 l0 44 -39 1 c-21 1 -41 -3 -45 -8z"/>
<path d="M3956 4671 c-12 -13 -14 -21 -6 -26 16 -10 40 2 40 19 0 24 -16 27
-34 7z"/>
<path d="M4340 4630 c0 -5 9 -10 19 -10 11 0 23 5 26 10 4 6 -5 10 -19 10 -14
0 -26 -4 -26 -10z"/>
<path d="M4080 4525 c0 -8 7 -15 16 -15 14 0 14 3 4 15 -7 8 -14 15 -16 15 -2
0 -4 -7 -4 -15z"/>
<path d="M4000 4321 c0 -89 0 -164 0 -168 0 -5 6 -8 13 -8 8 0 11 12 10 35 -2
19 -2 46 -1 60 8 93 2 234 -9 238 -10 3 -13 -33 -13 -157z"/>
<path d="M4935 4390 c-30 -8 -30 -8 8 -9 20 0 37 4 37 9 0 11 -2 11 -45 0z"/>
<path d="M4973 4323 c9 -2 23 -2 30 0 6 3 -1 5 -18 5 -16 0 -22 -2 -12 -5z"/>
<path d="M4316 4311 c5 -5 27 -6 49 -1 l40 8 -49 1 c-30 1 -46 -3 -40 -8z"/>
<path d="M3930 4170 c0 -19 11 -26 23 -14 8 8 -3 34 -14 34 -5 0 -9 -9 -9 -20z"/>
<path d="M3930 4077 c0 -4 8 -10 18 -13 14 -5 48 -19 75 -32 4 -2 7 10 7 26 0
30 -1 30 -50 29 -27 -1 -50 -6 -50 -10z"/>
<path d="M4008 3703 c-5 -35 8 -89 23 -99 9 -5 10 10 4 52 -8 67 -21 89 -27
47z"/>
<path d="M3893 3624 c-3 -8 -1 -20 6 -27 8 -8 11 -4 11 16 0 30 -7 35 -17 11z"/>
<path d="M3950 3625 c0 -8 5 -15 10 -15 6 0 10 7 10 15 0 8 -4 15 -10 15 -5 0
-10 -7 -10 -15z"/>
<path d="M4918 3633 c12 -2 32 -2 45 0 12 2 2 4 -23 4 -25 0 -35 -2 -22 -4z"/>
<path d="M3921 3544 c0 -11 3 -14 6 -6 3 7 2 16 -1 19 -3 4 -6 -2 -5 -13z"/>
<path d="M5310 3546 c0 -2 7 -9 15 -16 12 -10 15 -10 15 4 0 9 -7 16 -15 16
-8 0 -15 -2 -15 -4z"/>
<path d="M4750 3515 c-6 -8 -9 -23 -6 -33 5 -15 14 -19 39 -16 18 1 47 3 65 3
25 1 32 5 32 21 0 11 5 20 10 20 6 0 10 5 10 10 0 17 -136 12 -150 -5z"/>
<path d="M4612 3504 c2 -14 10 -18 28 -16 33 5 51 22 23 22 -12 0 -29 3 -38 6
-13 5 -16 2 -13 -12z"/>
<path d="M4385 3360 c-9 -14 21 -65 48 -83 48 -31 51 16 5 62 -34 33 -43 37
-53 21z"/>
<path d="M5393 3313 c-35 -7 -27 -30 11 -35 44 -5 56 0 56 23 0 19 -15 22 -67
12z"/>
<path d="M5200 3191 c0 -5 23 -9 50 -9 28 0 50 4 50 9 0 5 -22 9 -50 9 -27 0
-50 -4 -50 -9z"/>
<path d="M2881 4134 c0 -11 3 -14 6 -6 3 7 2 16 -1 19 -3 4 -6 -2 -5 -13z"/>
<path d="M2880 4090 c0 -5 5 -10 10 -10 6 0 10 5 10 10 0 6 -4 10 -10 10 -5 0
-10 -4 -10 -10z"/>
<path d="M2890 3924 c0 -8 5 -12 10 -9 6 4 8 11 5 16 -9 14 -15 11 -15 -7z"/>
<path d="M2515 4183 c-178 -8 -361 -26 -367 -36 -21 -33 7 -101 33 -80 15 12
54 10 134 -6 79 -16 199 -13 245 5 29 12 61 15 113 12 94 -6 115 12 85 77 -7
17 -20 25 -37 26 -67 3 -161 4 -206 2z m195 -49 c0 -10 -14 -14 -47 -14 -158
-1 -441 -14 -455 -21 -10 -6 -19 -5 -23 1 -11 17 2 26 42 29 21 1 79 6 128 11
50 4 150 7 223 7 105 0 132 -3 132 -13z"/>
<path d="M547 3973 c-39 -16 -45 -35 -11 -42 10 -1 26 -9 35 -17 14 -13 18
-13 28 0 7 8 22 16 34 18 30 4 36 38 7 38 -12 0 -29 4 -38 9 -11 6 -30 4 -55
-6z"/>
<path d="M539 3843 c-3 -49 4 -99 14 -105 15 -9 70 2 79 16 11 16 10 64 -2 87
-15 26 -90 28 -91 2z m61 -43 c0 -5 -4 -10 -10 -10 -5 0 -10 5 -10 10 0 6 5
10 10 10 6 0 10 -4 10 -10z"/>
<path d="M542 3688 c3 -7 14 -17 26 -23 29 -13 28 -25 -3 -25 -18 0 -25 -5
-25 -20 0 -11 7 -20 15 -20 20 0 19 -20 -2 -36 -16 -11 -15 -13 11 -20 38 -9
60 6 67 47 3 19 8 39 9 44 2 6 -3 22 -10 38 -11 23 -20 27 -52 27 -27 0 -38
-4 -36 -12z"/>
<path d="M572 3511 c-8 -5 -14 -31 -15 -67 l-2 -59 30 3 c56 5 73 12 78 32 5
20 -28 54 -43 45 -4 -3 -10 9 -14 25 -6 31 -12 35 -34 21z"/>
<path d="M574 3295 c-9 -23 14 -45 26 -25 5 8 8 19 7 24 -6 17 -27 18 -33 1z"/>
<path d="M2368 3930 c-78 -3 -143 -11 -149 -17 -17 -17 -1 -56 22 -50 10 3 19
1 19 -4 0 -5 14 -16 31 -25 25 -13 53 -15 148 -10 139 6 212 15 227 27 7 5 10
24 9 42 -4 48 -24 50 -307 37z m262 -40 c0 -7 -165 -23 -247 -24 -74 -1 -46
19 34 25 106 7 213 7 213 -1z"/>
<path d="M300 3635 c0 -15 4 -24 10 -20 6 3 10 12 10 20 0 8 -4 17 -10 20 -6
4 -10 -5 -10 -20z"/>
<path d="M312 3510 c0 -19 2 -27 5 -17 2 9 2 25 0 35 -3 9 -5 1 -5 -18z"/>
<path d="M275 3090 c3 -5 10 -10 16 -10 5 0 9 5 9 10 0 6 -7 10 -16 10 -8 0
-12 -4 -9 -10z"/>
<path d="M312 2880 c0 -14 2 -19 5 -12 2 6 2 18 0 25 -3 6 -5 1 -5 -13z"/>
<path d="M2720 2841 c0 -9 63 -24 118 -27 18 -1 39 -7 47 -14 24 -20 145 -2
180 27 29 24 29 25 5 18 -59 -16 -203 -19 -265 -5 -51 12 -85 12 -85 1z"/>
<path d="M2700 2291 c0 -5 -10 -12 -22 -15 -23 -6 -23 -7 -4 -21 11 -8 29 -15
39 -15 19 0 19 1 4 18 -13 14 -14 21 -5 30 9 9 9 12 0 12 -7 0 -12 -4 -12 -9z"/>
<path d="M2760 2290 c0 -5 4 -10 9 -10 6 0 13 5 16 10 3 6 -1 10 -9 10 -9 0
-16 -4 -16 -10z"/>
<path d="M2772 2251 c-11 -7 -10 -10 3 -15 23 -8 27 -8 20 3 -3 5 5 12 17 14
22 4 22 4 -2 5 -14 1 -31 -2 -38 -7z"/>
<path d="M2820 2204 c0 -21 4 -33 10 -29 6 3 10 19 10 36 0 16 -4 29 -10 29
-5 0 -10 -16 -10 -36z"/>
<path d="M2785 2161 c-3 -5 -1 -12 5 -16 5 -3 10 1 10 9 0 18 -6 21 -15 7z"/>
<path d="M5114 2417 c3 -10 6 -21 6 -23 0 -8 69 -4 74 4 3 5 -11 8 -30 7 -22
0 -39 5 -45 15 -9 12 -10 12 -5 -3z"/>
<path d="M5370 2416 c0 -8 5 -18 10 -21 6 -3 10 3 10 14 0 12 -4 21 -10 21 -5
0 -10 -6 -10 -14z"/>
<path d="M5215 2400 c-4 -7 3 -8 22 -4 38 9 42 14 10 14 -14 0 -29 -5 -32 -10z"/>
<path d="M2181 2243 c0 -5 4 -17 9 -28 8 -18 9 -17 9 8 1 15 -3 27 -9 27 -5 0
-10 -3 -9 -7z"/>
<path d="M2057 2224 c-35 -19 -29 -29 18 -32 21 -2 44 -9 52 -17 17 -17 43
-20 43 -5 0 6 -7 13 -15 16 -18 7 -20 41 -3 46 7 3 -5 5 -27 6 -22 0 -53 -6
-68 -14z"/>
<path d="M3885 1890 c-9 -15 4 -30 20 -23 8 3 15 9 15 13 0 12 -29 20 -35 10z"/>
<path d="M3833 1806 c-9 -11 -9 -15 0 -19 18 -6 37 3 37 19 0 18 -21 18 -37 0z"/>
<path d="M3943 1745 c0 -16 24 -20 45 -6 10 6 8 10 -10 14 -33 9 -35 9 -35 -8z"/>
<path d="M4031 1744 c-17 -20 -12 -24 17 -13 13 5 20 13 17 19 -8 14 -18 12
-34 -6z"/>
<path d="M4165 1627 c-4 -10 -5 -21 -1 -24 10 -10 18 4 13 24 -4 17 -4 17 -12
0z"/>
<path d="M4197 1594 c-7 -8 4 -44 14 -44 12 0 12 37 0 44 -4 3 -11 3 -14 0z"/>
<path d="M4120 1580 c0 -5 5 -10 10 -10 6 0 10 5 10 10 0 6 -4 10 -10 10 -5 0
-10 -4 -10 -10z"/>
<path d="M4150 1560 c-13 -8 -12 -10 3 -10 9 0 17 5 17 10 0 12 -1 12 -20 0z"/>
<path d="M5405 2220 c-3 -5 1 -10 10 -10 9 0 13 5 10 10 -3 6 -8 10 -10 10 -2
0 -7 -4 -10 -10z"/>
<path d="M5486 2221 c-7 -11 22 -25 46 -22 9 1 19 -3 23 -9 7 -12 25 -14 25
-2 0 18 -85 48 -94 33z"/>
<path d="M5660 2190 c-23 -7 -23 -8 -3 -9 12 -1 25 4 28 9 3 6 5 10 3 9 -2 -1
-14 -5 -28 -9z"/>
<path d="M5599 2188 c0 -2 -2 -14 -5 -28 -8 -47 -13 -53 -29 -40 -7 6 -15 21
-17 33 -3 22 -6 22 -173 23 -233 1 -225 3 -225 -57 0 -26 4 -50 8 -53 5 -3 98
-7 208 -8 l199 -3 42 34 c23 19 40 38 37 43 -4 6 -11 5 -17 -1 -6 -6 -14 -11
-18 -11 -11 0 -6 54 6 62 6 5 5 8 -2 8 -7 0 -13 -1 -14 -2z m-169 -74 c0 -12
-6 -15 -22 -10 -13 3 -35 6 -50 6 -16 0 -28 5 -28 10 0 6 23 10 50 10 39 0 50
-3 50 -16z"/>
<path d="M3584 2042 c-6 -4 -14 -17 -18 -29 -6 -18 -4 -22 8 -17 9 3 16 11 16
18 0 6 5 4 10 -4 11 -17 12 -4 2 22 -4 10 -12 14 -18 10z"/>
<path d="M5861 2064 c0 -11 3 -14 6 -6 3 7 2 16 -1 19 -3 4 -6 -2 -5 -13z"/>
<path d="M2310 2010 c-13 -8 -12 -10 3 -10 21 0 23 -16 2 -24 -20 -7 -19 -26
1 -26 11 0 15 -6 11 -20 -3 -11 -1 -23 4 -26 5 -3 10 7 10 23 1 15 3 43 5 61
2 33 -8 40 -36 22z"/>
<path d="M2178 1913 c7 -3 16 -2 19 1 4 3 -2 6 -13 5 -11 0 -14 -3 -6 -6z"/>
<path d="M2197 1889 c7 -7 15 -10 18 -7 3 3 -2 9 -12 12 -14 6 -15 5 -6 -5z"/>
<path d="M2285 1830 c3 -5 8 -10 11 -10 2 0 4 5 4 10 0 6 -5 10 -11 10 -5 0
-7 -4 -4 -10z"/>
<path d="M3360 1840 c0 -5 9 -10 21 -10 11 0 17 5 14 10 -3 6 -13 10 -21 10
-8 0 -14 -4 -14 -10z"/>
<path d="M2550 1890 c0 -5 7 -10 16 -10 8 0 12 5 9 10 -3 6 -10 10 -16 10 -5
0 -9 -4 -9 -10z"/>
<path d="M2637 1873 c-12 -12 -7 -22 8 -17 9 4 15 0 15 -10 0 -11 9 -16 29
-16 17 0 32 4 35 9 3 4 -5 6 -18 4 -17 -4 -25 1 -29 16 -5 20 -27 28 -40 14z"/>
<path d="M2552 1820 c0 -14 2 -19 5 -12 2 6 2 18 0 25 -3 6 -5 1 -5 -13z"/>
<path d="M2785 1819 c-10 -15 -2 -19 23 -12 12 3 19 9 16 14 -7 12 -31 11 -39
-2z"/>
<path d="M1880 1710 c0 -11 -7 -23 -15 -26 -23 -9 -18 -26 6 -19 14 5 26 0 40
-16 10 -12 19 -17 19 -11 0 6 -7 17 -15 26 -8 8 -15 24 -15 35 0 11 -4 23 -10
26 -5 3 -10 -3 -10 -15z"/>
<path d="M1947 1613 c-11 -19 35 -85 49 -71 3 3 -2 22 -10 42 -14 34 -29 45
-39 29z"/>
<path d="M1730 1571 c0 -20 5 -31 14 -31 10 0 14 9 12 27 -4 39 -26 42 -26 4z"/>
<path d="M1920 1519 c0 -5 5 -7 10 -4 6 3 10 8 10 11 0 2 -4 4 -10 4 -5 0 -10
-5 -10 -11z"/>
<path d="M1991 1434 c0 -11 3 -14 6 -6 3 7 2 16 -1 19 -3 4 -6 -2 -5 -13z"/>
<path d="M1890 1281 c0 -5 7 -11 15 -15 9 -3 15 0 15 9 0 8 -7 15 -15 15 -8 0
-15 -4 -15 -9z"/>
<path d="M2988 1753 c-10 -2 -18 -9 -18 -14 0 -14 20 -11 36 6 16 15 13 16
-18 8z"/>
<path d="M3171 1774 c0 -11 3 -14 6 -6 3 7 2 16 -1 19 -3 4 -6 -2 -5 -13z"/>
<path d="M3228 1763 c7 -3 16 -2 19 1 4 3 -2 6 -13 5 -11 0 -14 -3 -6 -6z"/>
<path d="M4603 1493 c-20 -7 -15 -23 7 -23 11 0 20 4 20 9 0 13 -12 19 -27 14z"/>
<path d="M4650 1469 c0 -7 32 -10 103 -8 56 1 128 -1 161 -5 48 -7 58 -6 54 5
-6 18 -318 26 -318 8z"/>
<path d="M4683 1283 c9 -2 23 -2 30 0 6 3 -1 5 -18 5 -16 0 -22 -2 -12 -5z"/>
<path d="M4743 1283 c9 -2 23 -2 30 0 6 3 -1 5 -18 5 -16 0 -22 -2 -12 -5z"/>
<path d="M1601 786 c-7 -8 -11 -34 -9 -57 3 -39 6 -44 36 -53 64 -18 106 27
85 91 -8 24 -15 28 -55 31 -30 2 -49 -2 -57 -12z"/>
<path d="M3577 782 c-39 -43 -5 -112 53 -112 35 0 70 31 70 60 0 12 -7 32 -16
45 -20 31 -82 35 -107 7z"/>
<path d="M4684 787 c-49 -38 -18 -137 44 -137 43 0 90 76 63 103 -6 6 -11 19
-11 28 0 26 -66 30 -96 6z"/>
<path d="M2125 530 c-3 -5 -2 -10 4 -10 5 0 13 5 16 10 3 6 2 10 -4 10 -5 0
-13 -4 -16 -10z"/>
<path d="M1900 520 c-13 -8 -12 -10 3 -10 9 0 17 5 17 10 0 12 -1 12 -20 0z"/>
<path d="M2065 520 c-3 -5 -1 -10 4 -10 6 0 11 5 11 10 0 6 -2 10 -4 10 -3 0
-8 -4 -11 -10z"/>
<path d="M2175 510 c-3 -5 -1 -10 4 -10 6 0 11 5 11 10 0 6 -2 10 -4 10 -3 0
-8 -4 -11 -10z"/>
<path d="M2420 510 c14 -10 27 -17 29 -15 8 8 -22 35 -38 35 -12 0 -10 -5 9
-20z"/>
<path d="M2360 510 c0 -5 5 -10 10 -10 6 0 10 5 10 10 0 6 -4 10 -10 10 -5 0
-10 -4 -10 -10z"/>
<path d="M4998 513 c-19 -5 -24 -18 -10 -27 4 -3 54 -8 110 -11 85 -5 102 -4
102 8 0 8 -9 14 -22 14 -21 -1 -112 10 -148 17 -8 2 -23 1 -32 -1z"/>
<path d="M563 4943 c-21 -8 -15 -22 7 -16 11 3 20 9 20 14 0 10 -8 10 -27 2z"/>
<path d="M417 4904 c-16 -19 -27 -37 -24 -40 8 -8 60 16 73 34 39 51 -9 57
-49 6z"/>
<path d="M130 4889 c0 -24 23 -21 28 4 2 10 -3 17 -12 17 -10 0 -16 -9 -16
-21z"/>
<path d="M260 4875 c0 -8 9 -15 20 -15 11 0 20 7 20 15 0 8 -9 15 -20 15 -11
0 -20 -7 -20 -15z"/>
<path d="M503 4841 c-14 -22 -8 -29 39 -49 36 -15 45 1 13 26 -14 11 -25 25
-25 31 0 17 -14 13 -27 -8z"/>
<path d="M83 4836 c-13 -6 -23 -14 -23 -18 0 -13 17 -9 32 6 8 8 23 16 34 19
18 4 18 5 -1 5 -11 0 -30 -5 -42 -12z"/>
<path d="M640 4825 c0 -9 9 -15 21 -15 18 0 19 2 9 15 -7 8 -16 15 -21 15 -5
0 -9 -7 -9 -15z"/>
<path d="M220 4820 c-9 -6 -10 -10 -3 -10 6 0 18 -3 27 -6 11 -4 16 0 16 12 0
15 -2 16 -9 5 -5 -8 -10 -9 -12 -2 -3 7 -9 7 -19 1z"/>
<path d="M88 4793 c7 -3 16 -2 19 1 4 3 -2 6 -13 5 -11 0 -14 -3 -6 -6z"/>
<path d="M335 4760 c-10 -17 27 -41 42 -28 15 12 17 38 3 38 -5 0 -10 -5 -10
-11 0 -8 -4 -8 -14 0 -10 9 -16 9 -21 1z"/>
<path d="M270 4744 c0 -8 5 -12 10 -9 6 3 10 10 10 16 0 5 -4 9 -10 9 -5 0
-10 -7 -10 -16z"/>
<path d="M150 4743 c0 -6 -9 -15 -21 -18 -18 -6 -20 -12 -15 -38 7 -37 20 -52
35 -43 7 5 7 13 -1 26 -10 16 -9 22 6 33 15 11 17 18 8 33 -6 10 -12 14 -12 7z"/>
<path d="M358 4687 c-3 -13 -1 -34 3 -45 7 -20 11 -21 36 -10 63 27 67 39 16
58 -21 8 -41 16 -44 18 -4 2 -9 -8 -11 -21z"/>
<path d="M0 4587 c0 -63 15 -77 26 -23 4 24 1 42 -10 58 -15 22 -16 21 -16
-35z"/>
<path d="M457 4633 c-10 -15 5 -63 19 -63 19 0 30 29 17 48 -11 19 -29 26 -36
15z"/>
<path d="M151 4618 c0 -7 4 -22 8 -33 8 -19 8 -19 20 3 7 12 9 27 6 32 -9 14
-35 12 -34 -2z"/>
<path d="M261 4574 c0 -11 3 -14 6 -6 3 7 2 16 -1 19 -3 4 -6 -2 -5 -13z"/>
<path d="M0 3311 c0 -50 1 -53 14 -35 9 12 11 23 5 30 -5 6 -6 13 -3 17 3 3 1
14 -5 24 -8 14 -10 7 -11 -36z"/>
<path d="M41 3303 c0 -5 4 -17 9 -28 8 -18 9 -17 9 8 1 15 -3 27 -9 27 -5 0
-10 -3 -9 -7z"/>
<path d="M6393 2970 c0 -30 2 -43 4 -27 2 15 2 39 0 55 -2 15 -4 2 -4 -28z"/>
<path d="M5405 1450 c-4 -6 7 -10 27 -10 25 0 29 3 18 10 -19 13 -37 13 -45 0z"/>
<path d="M5548 1438 c8 -8 17 -8 34 0 22 10 21 11 -11 11 -27 1 -32 -2 -23
-11z"/>
<path d="M5878 1413 c23 -2 59 -2 80 0 20 2 1 4 -43 4 -44 0 -61 -2 -37 -4z"/>
<path d="M1410 1256 c0 -19 4 -37 9 -40 10 -6 24 52 15 65 -12 20 -24 7 -24
-25z"/>
<path d="M845 1140 c3 -5 8 -10 11 -10 2 0 4 5 4 10 0 6 -5 10 -11 10 -5 0 -7
-4 -4 -10z"/>
<path d="M1366 1118 c3 -4 9 -8 15 -8 5 0 9 4 9 8 0 5 -7 9 -15 9 -8 0 -12 -4
-9 -9z"/>
<path d="M3090 350 c0 -5 5 -10 10 -10 6 0 10 5 10 10 0 6 -4 10 -10 10 -5 0
-10 -4 -10 -10z"/>
<path d="M3370 349 c-13 -6 -35 -7 -47 -4 -13 3 -23 1 -23 -5 0 -12 2 -12 105
-15 44 0 71 1 60 3 -11 2 -29 11 -40 18 -22 16 -22 16 -55 3z"/>
<path d="M3390 309 c0 -5 5 -7 10 -4 6 3 10 8 10 11 0 2 -4 4 -10 4 -5 0 -10
-5 -10 -11z"/>
<path d="M3507 296 c-3 -8 1 -22 9 -33 13 -17 14 -16 8 12 -8 37 -10 39 -17
21z"/>
<path d="M1450 240 c10 -6 11 -10 3 -10 -26 0 -11 -21 45 -62 31 -23 88 -70
127 -105 47 -43 77 -63 95 -63 23 0 20 5 -35 58 -112 106 -216 192 -233 192
-15 0 -15 -2 -2 -10z"/>
<path d="M3170 228 c0 -17 2 -18 15 -8 8 7 15 14 15 15 0 2 -7 5 -15 9 -10 4
-15 -1 -15 -16z"/>
<path d="M3545 218 c8 -36 12 -44 20 -36 8 8 -7 68 -17 68 -6 0 -7 -14 -3 -32z"/>
<path d="M3522 215 c0 -16 2 -22 5 -12 2 9 2 23 0 30 -3 6 -5 -1 -5 -18z"/>
<path d="M3330 120 c0 -19 3 -21 12 -12 9 9 9 15 0 24 -9 9 -12 7 -12 -12z"/>
<path d="M3360 114 c0 -8 5 -12 10 -9 6 3 10 10 10 16 0 5 -4 9 -10 9 -5 0
-10 -7 -10 -16z"/>
<path d="M3578 95 c-3 -3 -1 -25 5 -49 7 -33 15 -44 27 -43 15 1 16 6 9 31 -5
17 -6 39 -3 48 4 13 0 18 -14 18 -10 0 -21 -2 -24 -5z"/>
</g>
</svg>
